<svg width="46" height="46" viewBox="0 0 46 46" fill="none" xmlns="http://www.w3.org/2000/svg">
<g id="Group 30580">
<circle id="Ellipse 5" cx="23" cy="23" r="23" fill="url(#paint0_linear_65_785)"/>
<path id="Vector" d="M20.2308 32.0909C20.2308 32.608 20.0481 33.0554 19.6827 33.4332C19.3173 33.8111 18.8846 34 18.3846 34C17.8846 34 17.4519 33.8111 17.0865 33.4332C16.7212 33.0554 16.5385 32.608 16.5385 32.0909C16.5385 31.5739 16.7212 31.1264 17.0865 30.7486C17.4519 30.3707 17.8846 30.1818 18.3846 30.1818C18.8846 30.1818 19.3173 30.3707 19.6827 30.7486C20.0481 31.1264 20.2308 31.5739 20.2308 32.0909ZM33.1538 32.0909C33.1538 32.608 32.9712 33.0554 32.6058 33.4332C32.2404 33.8111 31.8077 34 31.3077 34C30.8077 34 30.375 33.8111 30.0096 33.4332C29.6442 33.0554 29.4615 32.608 29.4615 32.0909C29.4615 31.5739 29.6442 31.1264 30.0096 30.7486C30.375 30.3707 30.8077 30.1818 31.3077 30.1818C31.8077 30.1818 32.2404 30.3707 32.6058 30.7486C32.9712 31.1264 33.1538 31.5739 33.1538 32.0909ZM35 15.8636V23.5C35 23.7386 34.9207 23.9499 34.762 24.1339C34.6034 24.3178 34.4087 24.4247 34.1779 24.4545L19.1202 26.2741C19.2452 26.8707 19.3077 27.2188 19.3077 27.3182C19.3077 27.4773 19.1923 27.7955 18.9615 28.2727H32.2308C32.4808 28.2727 32.6971 28.3672 32.8798 28.5561C33.0625 28.745 33.1538 28.9688 33.1538 29.2273C33.1538 29.4858 33.0625 29.7095 32.8798 29.8984C32.6971 30.0874 32.4808 30.1818 32.2308 30.1818H17.4615C17.2115 30.1818 16.9952 30.0874 16.8125 29.8984C16.6298 29.7095 16.5385 29.4858 16.5385 29.2273C16.5385 29.1179 16.5769 28.9613 16.6538 28.7575C16.7308 28.5536 16.8077 28.3746 16.8846 28.2205C16.9615 28.0664 17.0649 27.8675 17.1947 27.6239C17.3245 27.3803 17.399 27.2337 17.4183 27.1839L14.8654 14.9091H11.9231C11.6731 14.9091 11.4567 14.8146 11.274 14.6257C11.0913 14.4368 11 14.2131 11 13.9545C11 13.696 11.0913 13.4723 11.274 13.2834C11.4567 13.0945 11.6731 13 11.9231 13H15.6154C15.7692 13 15.9062 13.0323 16.0264 13.0969C16.1466 13.1616 16.2404 13.2386 16.3077 13.3281C16.375 13.4176 16.4375 13.5394 16.4952 13.6935C16.5529 13.8477 16.5913 13.9769 16.6106 14.0813C16.6298 14.1857 16.6562 14.3324 16.6899 14.5213C16.7236 14.7102 16.7452 14.8395 16.7548 14.9091H34.0769C34.3269 14.9091 34.5433 15.0036 34.726 15.1925C34.9087 15.3814 35 15.6051 35 15.8636Z" fill="white"/>
</g>
<defs>
<linearGradient id="paint0_linear_65_785" x1="23" y1="0" x2="23" y2="46" gradientUnits="userSpaceOnUse">
<stop stop-color="#FFC000"/>
<stop offset="0.9999" stop-color="#FF5400"/>
<stop offset="1" stop-color="#FF5400"/>
</linearGradient>
</defs>
</svg>
